STARTFONT 2.1
FONT TTFx
SIZE 13 72 72
FONTBOUNDINGBOX 15 16 3 -3
STARTPROPERTIES 4
FONT "TTFx"
DEFAULT_CHAR 32
FONT_ASCENT 13
FONT_DESCENT 3
ENDPROPERTIES
CHARS 160
STARTCHAR exclam
ENCODING 33
SWIDTH 307 0
DWIDTH 4 0
BBX 4 10 1 0
BITMAP
00
20
20
20
20
40
40
40
00
80
ENDCHAR
STARTCHAR quotedbl
ENCODING 34
SWIDTH 461 0
DWIDTH 6 0
BBX 6 5 1 5
BITMAP
00
48
90
90
90
ENDCHAR
STARTCHAR numbersign
ENCODING 35
SWIDTH 538 0
DWIDTH 7 0
BBX 8 10 0 0
BITMAP
00
24
24
24
FE
48
FE
48
48
48
ENDCHAR
STARTCHAR dollar
ENCODING 36
SWIDTH 538 0
DWIDTH 7 0
BBX 7 12 1 -1
BITMAP
00
08
38
54
54
30
10
28
A8
A8
70
40
ENDCHAR
STARTCHAR percent
ENCODING 37
SWIDTH 846 0
DWIDTH 11 0
BBX 11 10 1 0
BITMAP
0000
7080
9100
9200
9400
65C0
0A40
1240
2240
4380
ENDCHAR
STARTCHAR ampersand
ENCODING 38
SWIDTH 846 0
DWIDTH 11 0
BBX 11 10 0 0
BITMAP
0000
0E00
1200
1400
1800
73C0
8900
8A00
8C00
77C0
ENDCHAR
STARTCHAR apostrophe
ENCODING 39
SWIDTH 230 0
DWIDTH 3 0
BBX 3 5 2 5
BITMAP
00
40
80
80
80
ENDCHAR
STARTCHAR parenleft
ENCODING 40
SWIDTH 384 0
DWIDTH 5 0
BBX 6 13 1 -3
BITMAP
00
08
10
20
40
40
80
80
80
80
80
80
40
ENDCHAR
STARTCHAR parenright
ENCODING 41
SWIDTH 384 0
DWIDTH 5 0
BBX 6 13 -1 -3
BITMAP
00
10
08
08
08
08
08
08
10
10
20
40
80
ENDCHAR
STARTCHAR asterisk
ENCODING 42
SWIDTH 538 0
DWIDTH 7 0
BBX 6 6 2 4
BITMAP
00
20
A8
70
A8
20
ENDCHAR
STARTCHAR plus
ENCODING 43
SWIDTH 692 0
DWIDTH 9 0
BBX 8 8 1 1
BITMAP
00
10
10
10
FE
10
10
10
ENDCHAR
STARTCHAR comma
ENCODING 44
SWIDTH 230 0
DWIDTH 3 0
BBX 3 4 -1 -2
BITMAP
00
40
40
80
ENDCHAR
STARTCHAR minus
ENCODING 45
SWIDTH 307 0
DWIDTH 4 0
BBX 5 2 0 2
BITMAP
00
E0
ENDCHAR
STARTCHAR period
ENCODING 46
SWIDTH 230 0
DWIDTH 3 0
BBX 2 2 0 0
BITMAP
00
80
ENDCHAR
STARTCHAR slash
ENCODING 47
SWIDTH 307 0
DWIDTH 4 0
BBX 7 10 -1 0
BITMAP
00
04
08
08
10
10
20
40
40
80
ENDCHAR
STARTCHAR 0
ENCODING 48
SWIDTH 538 0
DWIDTH 7 0
BBX 7 10 1 0
BITMAP
00
38
24
44
44
84
84
88
88
70
ENDCHAR
STARTCHAR 1
ENCODING 49
SWIDTH 538 0
DWIDTH 7 0
BBX 7 10 0 0
BITMAP
00
18
08
10
10
10
10
10
20
70
ENDCHAR
STARTCHAR 2
ENCODING 50
SWIDTH 538 0
DWIDTH 7 0
BBX 7 10 0 0
BITMAP
00
18
24
04
04
08
10
20
48
F0
ENDCHAR
STARTCHAR 3
ENCODING 51
SWIDTH 538 0
DWIDTH 7 0
BBX 7 10 0 0
BITMAP
00
1C
24
04
08
30
08
08
08
F0
ENDCHAR
STARTCHAR 4
ENCODING 52
SWIDTH 538 0
DWIDTH 7 0
BBX 8 10 0 0
BITMAP
00
02
04
0C
14
28
48
FC
10
10
ENDCHAR
STARTCHAR 5
ENCODING 53
SWIDTH 538 0
DWIDTH 7 0
BBX 8 10 0 0
BITMAP
00
1E
10
30
08
04
04
04
88
F0
ENDCHAR
STARTCHAR 6
ENCODING 54
SWIDTH 538 0
DWIDTH 7 0
BBX 7 10 1 0
BITMAP
00
0C
30
40
70
88
88
88
90
60
ENDCHAR
STARTCHAR 7
ENCODING 55
SWIDTH 538 0
DWIDTH 7 0
BBX 7 10 1 0
BITMAP
00
7C
88
08
10
10
20
40
40
80
ENDCHAR
STARTCHAR 8
ENCODING 56
SWIDTH 538 0
DWIDTH 7 0
BBX 7 10 0 0
BITMAP
00
18
24
24
18
30
48
88
88
70
ENDCHAR
STARTCHAR 9
ENCODING 57
SWIDTH 538 0
DWIDTH 7 0
BBX 7 10 0 0
BITMAP
00
18
24
44
44
48
38
08
30
C0
ENDCHAR
STARTCHAR colon
ENCODING 58
SWIDTH 307 0
DWIDTH 4 0
BBX 3 7 1 0
BITMAP
00
40
00
00
00
00
80
ENDCHAR
STARTCHAR semicolon
ENCODING 59
SWIDTH 307 0
DWIDTH 4 0
BBX 4 9 0 -2
BITMAP
00
20
00
00
00
00
40
40
80
ENDCHAR
STARTCHAR less
ENCODING 60
SWIDTH 692 0
DWIDTH 9 0
BBX 8 8 1 1
BITMAP
00
02
1C
60
80
60
1C
02
ENDCHAR
STARTCHAR equal
ENCODING 61
SWIDTH 692 0
DWIDTH 9 0
BBX 8 5 1 3
BITMAP
00
FE
00
00
FE
ENDCHAR
STARTCHAR greater
ENCODING 62
SWIDTH 692 0
DWIDTH 9 0
BBX 8 8 1 1
BITMAP
00
80
70
1C
02
0C
70
80
ENDCHAR
STARTCHAR question
ENCODING 63
SWIDTH 538 0
DWIDTH 7 0
BBX 6 10 2 0
BITMAP
00
70
88
88
10
20
20
40
00
80
ENDCHAR
STARTCHAR at
ENCODING 64
SWIDTH 923 0
DWIDTH 12 0
BBX 12 13 1 -3
BITMAP
0000
0F80
3040
46A0
4B20
8920
9120
9240
9640
9BA0
4020
20C0
1F00
ENDCHAR
STARTCHAR A
ENCODING 65
SWIDTH 615 0
DWIDTH 8 0
BBX 11 10 -1 0
BITMAP
0000
0100
0300
0500
0500
0900
1F00
1100
2100
E380
ENDCHAR
STARTCHAR B
ENCODING 66
SWIDTH 615 0
DWIDTH 8 0
BBX 10 10 -1 0
BITMAP
0000
1F00
0880
1080
1100
1E00
1100
1100
2100
7E00
ENDCHAR
STARTCHAR C
ENCODING 67
SWIDTH 692 0
DWIDTH 9 0
BBX 9 10 1 0
BITMAP
0000
1D00
2300
4200
8000
8000
8000
8000
8400
7800
ENDCHAR
STARTCHAR D
ENCODING 68
SWIDTH 692 0
DWIDTH 9 0
BBX 11 10 -1 0
BITMAP
0000
1F00
0880
0840
1040
1040
1040
1080
2100
7E00
ENDCHAR
STARTCHAR E
ENCODING 69
SWIDTH 615 0
DWIDTH 8 0
BBX 10 10 -1 0
BITMAP
0000
1F80
0880
1280
1200
1E00
1400
1500
2100
7E00
ENDCHAR
STARTCHAR F
ENCODING 70
SWIDTH 615 0
DWIDTH 8 0
BBX 11 10 -1 0
BITMAP
0000
1FC0
0840
1140
1100
1F00
1200
1200
2000
7000
ENDCHAR
STARTCHAR G
ENCODING 71
SWIDTH 692 0
DWIDTH 9 0
BBX 10 10 1 0
BITMAP
0000
1D00
2300
4200
8000
8700
8200
8200
4200
3C00
ENDCHAR
STARTCHAR H
ENCODING 72
SWIDTH 692 0
DWIDTH 9 0
BBX 13 10 -1 0
BITMAP
0000
1CE0
0840
1080
1080
1F80
1080
1080
2100
7380
ENDCHAR
STARTCHAR I
ENCODING 73
SWIDTH 307 0
DWIDTH 4 0
BBX 7 10 -1 0
BITMAP
00
1C
08
10
10
10
10
10
20
70
ENDCHAR
STARTCHAR J
ENCODING 74
SWIDTH 461 0
DWIDTH 6 0
BBX 8 10 0 0
BITMAP
00
0E
04
08
08
08
08
10
90
E0
ENDCHAR
STARTCHAR K
ENCODING 75
SWIDTH 692 0
DWIDTH 9 0
BBX 12 10 -1 0
BITMAP
0000
1CE0
0880
1300
1400
1800
1800
1400
2200
7780
ENDCHAR
STARTCHAR L
ENCODING 76
SWIDTH 538 0
DWIDTH 7 0
BBX 9 10 -1 0
BITMAP
0000
1C00
0800
1000
1000
1000
1000
1000
2300
7E00
ENDCHAR
STARTCHAR M
ENCODING 77
SWIDTH 846 0
DWIDTH 11 0
BBX 15 10 -1 0
BITMAP
0000
1818
0830
1460
1460
14A0
1520
1520
2640
74E0
ENDCHAR
STARTCHAR N
ENCODING 78
SWIDTH 692 0
DWIDTH 9 0
BBX 13 10 -1 0
BITMAP
0000
38E0
0840
1480
1480
1480
1280
1280
2100
7100
ENDCHAR
STARTCHAR O
ENCODING 79
SWIDTH 692 0
DWIDTH 9 0
BBX 9 10 1 0
BITMAP
0000
1E00
2100
4100
4100
8100
8200
8200
8400
7800
ENDCHAR
STARTCHAR P
ENCODING 80
SWIDTH 615 0
DWIDTH 8 0
BBX 10 10 -1 0
BITMAP
0000
1F00
0880
1080
1100
1E00
1000
1000
2000
7000
ENDCHAR
STARTCHAR Q
ENCODING 81
SWIDTH 692 0
DWIDTH 9 0
BBX 10 13 0 -3
BITMAP
0000
0F00
1100
2080
2080
4080
4100
4100
4200
3C00
2000
6100
1E00
ENDCHAR
STARTCHAR R
ENCODING 82
SWIDTH 615 0
DWIDTH 8 0
BBX 10 10 -1 0
BITMAP
0000
1F00
0880
1080
1080
1F00
1200
1200
2100
7180
ENDCHAR
STARTCHAR S
ENCODING 83
SWIDTH 538 0
DWIDTH 7 0
BBX 9 10 0 0
BITMAP
0000
1D00
2300
2200
1000
0800
0400
4400
C400
B800
ENDCHAR
STARTCHAR T
ENCODING 84
SWIDTH 538 0
DWIDTH 7 0
BBX 10 10 0 0
BITMAP
0000
7F00
4900
1000
1000
1000
1000
1000
2000
7000
ENDCHAR
STARTCHAR U
ENCODING 85
SWIDTH 692 0
DWIDTH 9 0
BBX 11 10 1 0
BITMAP
0000
7380
2100
4200
4200
4200
4200
4400
4400
3800
ENDCHAR
STARTCHAR V
ENCODING 86
SWIDTH 615 0
DWIDTH 8 0
BBX 10 10 1 0
BITMAP
0000
7700
2200
2200
2400
2800
5000
5000
6000
4000
ENDCHAR
STARTCHAR W
ENCODING 87
SWIDTH 769 0
DWIDTH 10 0
BBX 14 10 0 0
BITMAP
0000
7778
2220
2640
2640
4A80
5300
5500
6600
4400
ENDCHAR
STARTCHAR X
ENCODING 88
SWIDTH 615 0
DWIDTH 8 0
BBX 12 10 -1 0
BITMAP
0000
1FE0
0880
0900
0600
0400
0C00
1200
2200
E700
ENDCHAR
STARTCHAR Y
ENCODING 89
SWIDTH 538 0
DWIDTH 7 0
BBX 9 10 1 0
BITMAP
0000
F700
2400
2400
2800
1000
2000
2000
2000
F000
ENDCHAR
STARTCHAR Z
ENCODING 90
SWIDTH 538 0
DWIDTH 7 0
BBX 8 10 0 0
BITMAP
00
3E
44
44
08
10
20
24
44
FC
ENDCHAR
STARTCHAR bracketleft
ENCODING 91
SWIDTH 384 0
DWIDTH 5 0
BBX 7 13 0 -3
BITMAP
00
3C
20
20
20
20
40
40
40
40
40
80
E0
ENDCHAR
STARTCHAR backslash
ENCODING 92
SWIDTH 307 0
DWIDTH 4 0
BBX 3 10 1 0
BITMAP
00
80
80
80
80
40
40
40
40
40
ENDCHAR
STARTCHAR bracketright
ENCODING 93
SWIDTH 461 0
DWIDTH 6 0
BBX 8 13 -1 -3
BITMAP
00
1C
04
08
08
08
08
10
10
10
10
20
E0
ENDCHAR
STARTCHAR asciicircum
ENCODING 94
SWIDTH 384 0
DWIDTH 5 0
BBX 8 6 0 4
BITMAP
00
10
28
28
44
82
ENDCHAR
STARTCHAR underscore
ENCODING 95
SWIDTH 538 0
DWIDTH 7 0
BBX 8 2 0 -3
BITMAP
00
FE
ENDCHAR
STARTCHAR grave
ENCODING 96
SWIDTH 307 0
DWIDTH 4 0
BBX 3 3 2 7
BITMAP
00
80
40
ENDCHAR
STARTCHAR a
ENCODING 97
SWIDTH 538 0
DWIDTH 7 0
BBX 8 7 0 0
BITMAP
00
1C
64
44
88
98
EE
ENDCHAR
STARTCHAR b
ENCODING 98
SWIDTH 538 0
DWIDTH 7 0
BBX 7 10 0 0
BITMAP
00
60
20
40
5C
64
44
84
88
70
ENDCHAR
STARTCHAR c
ENCODING 99
SWIDTH 461 0
DWIDTH 6 0
BBX 6 7 0 0
BITMAP
00
38
48
80
80
90
60
ENDCHAR
STARTCHAR d
ENCODING 100
SWIDTH 538 0
DWIDTH 7 0
BBX 8 10 0 0
BITMAP
00
06
02
04
1C
64
44
88
9A
EC
ENDCHAR
STARTCHAR e
ENCODING 101
SWIDTH 461 0
DWIDTH 6 0
BBX 6 7 0 0
BITMAP
00
38
48
90
E0
88
70
ENDCHAR
STARTCHAR f
ENCODING 102
SWIDTH 230 0
DWIDTH 3 0
BBX 9 13 -3 -3
BITMAP
0000
0100
0300
0400
0E00
0400
0400
0400
0800
0800
0800
9000
E000
ENDCHAR
STARTCHAR g
ENCODING 103
SWIDTH 538 0
DWIDTH 7 0
BBX 9 10 0 -3
BITMAP
0000
3E00
4400
4400
3800
4000
7000
8C00
8400
7800
ENDCHAR
STARTCHAR h
ENCODING 104
SWIDTH 538 0
DWIDTH 7 0
BBX 8 10 0 0
BITMAP
00
60
20
40
4C
54
64
44
8A
8C
ENDCHAR
STARTCHAR i
ENCODING 105
SWIDTH 307 0
DWIDTH 4 0
BBX 4 9 1 0
BITMAP
00
20
00
C0
40
40
40
A0
C0
ENDCHAR
STARTCHAR j
ENCODING 106
SWIDTH 230 0
DWIDTH 3 0
BBX 6 12 -2 -3
BITMAP
00
08
00
30
10
10
10
20
20
20
A0
C0
ENDCHAR
STARTCHAR k
ENCODING 107
SWIDTH 538 0
DWIDTH 7 0
BBX 8 10 0 0
BITMAP
00
60
20
40
5C
50
70
50
94
88
ENDCHAR
STARTCHAR l
ENCODING 108
SWIDTH 307 0
DWIDTH 4 0
BBX 4 10 0 0
BITMAP
00
60
20
40
40
40
40
40
80
C0
ENDCHAR
STARTCHAR m
ENCODING 109
SWIDTH 692 0
DWIDTH 9 0
BBX 10 7 0 0
BITMAP
0000
DB00
6D00
6D00
4900
9280
9300
ENDCHAR
STARTCHAR n
ENCODING 110
SWIDTH 538 0
DWIDTH 7 0
BBX 8 7 0 0
BITMAP
00
CC
54
64
44
8A
8C
ENDCHAR
STARTCHAR o
ENCODING 111
SWIDTH 538 0
DWIDTH 7 0
BBX 7 7 0 0
BITMAP
00
38
44
84
84
88
70
ENDCHAR
STARTCHAR p
ENCODING 112
SWIDTH 538 0
DWIDTH 7 0
BBX 9 10 -2 -3
BITMAP
0000
7700
1900
1100
1100
2200
3C00
2000
2000
E000
ENDCHAR
STARTCHAR q
ENCODING 113
SWIDTH 538 0
DWIDTH 7 0
BBX 8 10 0 -3
BITMAP
00
1C
64
44
88
98
E8
08
10
38
ENDCHAR
STARTCHAR r
ENCODING 114
SWIDTH 384 0
DWIDTH 5 0
BBX 5 7 0 0
BITMAP
00
D0
70
40
40
80
80
ENDCHAR
STARTCHAR s
ENCODING 115
SWIDTH 384 0
DWIDTH 5 0
BBX 5 7 0 0
BITMAP
00
70
40
20
10
90
E0
ENDCHAR
STARTCHAR t
ENCODING 116
SWIDTH 307 0
DWIDTH 4 0
BBX 5 9 0 0
BITMAP
00
20
40
F0
40
40
40
A0
C0
ENDCHAR
STARTCHAR u
ENCODING 117
SWIDTH 538 0
DWIDTH 7 0
BBX 9 7 0 0
BITMAP
0000
C400
C400
4400
4C00
9800
EE00
ENDCHAR
STARTCHAR v
ENCODING 118
SWIDTH 461 0
DWIDTH 6 0
BBX 6 7 0 0
BITMAP
00
D8
48
48
50
60
40
ENDCHAR
STARTCHAR w
ENCODING 119
SWIDTH 692 0
DWIDTH 9 0
BBX 9 7 0 0
BITMAP
0000
CB00
4900
5900
6A00
4C00
4800
ENDCHAR
STARTCHAR x
ENCODING 120
SWIDTH 461 0
DWIDTH 6 0
BBX 7 7 0 0
BITMAP
00
38
18
10
28
28
C8
ENDCHAR
STARTCHAR y
ENCODING 121
SWIDTH 461 0
DWIDTH 6 0
BBX 8 10 -2 -3
BITMAP
00
36
12
12
14
18
10
10
A0
C0
ENDCHAR
STARTCHAR z
ENCODING 122
SWIDTH 384 0
DWIDTH 5 0
BBX 7 7 -1 0
BITMAP
00
7C
48
10
20
48
F8
ENDCHAR
STARTCHAR braceleft
ENCODING 123
SWIDTH 384 0
DWIDTH 5 0
BBX 6 13 1 -3
BITMAP
00
18
20
20
20
40
80
40
40
80
80
80
40
ENDCHAR
STARTCHAR bar
ENCODING 124
SWIDTH 307 0
DWIDTH 4 0
BBX 2 13 2 -3
BITMAP
00
80
80
80
80
80
80
80
80
80
80
80
80
ENDCHAR
STARTCHAR braceright
ENCODING 125
SWIDTH 384 0
DWIDTH 5 0
BBX 6 13 -1 -3
BITMAP
00
10
08
08
10
10
10
08
10
20
20
20
C0
ENDCHAR
STARTCHAR asciitilde
ENCODING 126
SWIDTH 538 0
DWIDTH 7 0
BBX 8 3 0 3
BITMAP
00
F2
8C
ENDCHAR
STARTCHAR C000202
ENCODING 130
SWIDTH 307 0
DWIDTH 4 0
BBX 3 4 0 -2
BITMAP
00
E0
80
80
ENDCHAR
STARTCHAR C000204
ENCODING 132
SWIDTH 538 0
DWIDTH 7 0
BBX 6 4 0 -2
BITMAP
84
84
84
84
ENDCHAR
STARTCHAR C000206
ENCODING 134
SWIDTH 538 0
DWIDTH 7 0
BBX 8 13 1 -3
BITMAP
84
FC
00
40
40
80
00
48
48
90
00
08
08
ENDCHAR
STARTCHAR C000207
ENCODING 135
SWIDTH 538 0
DWIDTH 7 0
BBX 8 13 0 -3
BITMAP
10
FE
10
30
20
20
40
40
40
80
00
04
04
ENDCHAR
STARTCHAR C000211
ENCODING 137
SWIDTH 923 0
DWIDTH 12 0
BBX 12 10 1 0
BITMAP
3E00
0810
1020
20F0
4040
0000
7400
9400
9800
9800
ENDCHAR
STARTCHAR C000212
ENCODING 138
SWIDTH 538 0
DWIDTH 7 0
BBX 9 13 0 0
BITMAP
FE80
3300
3300
5300
5D80
0000
0B00
0C00
0000
1D00
2300
2200
1000
ENDCHAR
STARTCHAR C000213
ENCODING 139
SWIDTH 307 0
DWIDTH 4 0
BBX 6 7 0 0
BITMAP
08
00
04
00
44
00
C4
ENDCHAR
STARTCHAR C000221
ENCODING 145
SWIDTH 307 0
DWIDTH 4 0
BBX 3 4 3 6
BITMAP
00
A0
00
00
ENDCHAR
STARTCHAR C000222
ENCODING 146
SWIDTH 307 0
DWIDTH 4 0
BBX 3 4 2 6
BITMAP
00
20
40
80
ENDCHAR
STARTCHAR C000223
ENCODING 147
SWIDTH 538 0
DWIDTH 7 0
BBX 6 4 3 6
BITMAP
40
60
00
40
ENDCHAR
STARTCHAR C000224
ENCODING 148
SWIDTH 538 0
DWIDTH 7 0
BBX 6 4 2 6
BITMAP
80
80
00
40
ENDCHAR
STARTCHAR C000225
ENCODING 149
SWIDTH 230 0
DWIDTH 3 0
BBX 2 2 1 4
BITMAP
40
80
ENDCHAR
STARTCHAR C000226
ENCODING 150
SWIDTH 538 0
DWIDTH 7 0
BBX 8 2 0 3
BITMAP
00
48
ENDCHAR
STARTCHAR C000227
ENCODING 151
SWIDTH 923 0
DWIDTH 12 0
BBX 13 2 0 3
BITMAP
9090
0048
ENDCHAR
STARTCHAR C000231
ENCODING 153
SWIDTH 1000 0
DWIDTH 13 0
BBX 14 7 0 3
BITMAP
4890
0080
00FC
0000
FFF0
0000
FF18
ENDCHAR
STARTCHAR C000232
ENCODING 154
SWIDTH 384 0
DWIDTH 5 0
BBX 7 10 0 0
BITMAP
AA
30
22
B0
22
D0
22
50
76
78
ENDCHAR
STARTCHAR C000233
ENCODING 155
SWIDTH 307 0
DWIDTH 4 0
BBX 6 7 -1 0
BITMAP
00
2C
30
00
70
40
20
ENDCHAR
STARTCHAR currency
ENCODING 164
SWIDTH 461 0
DWIDTH 6 0
BBX 7 7 0 1
BITMAP
10
90
E0
00
10
10
08
ENDCHAR
STARTCHAR brokenbar
ENCODING 166
SWIDTH 307 0
DWIDTH 4 0
BBX 2 13 2 -3
BITMAP
00
00
40
00
80
40
80
80
40
80
00
80
80
ENDCHAR
STARTCHAR section
ENCODING 167
SWIDTH 538 0
DWIDTH 7 0
BBX 7 13 0 -3
BITMAP
80
80
80
00
00
80
80
80
80
80
00
0C
14
ENDCHAR
STARTCHAR diaeresis
ENCODING 168
SWIDTH 307 0
DWIDTH 4 0
BBX 4 2 2 7
BITMAP
10
10
ENDCHAR
STARTCHAR copyright
ENCODING 169
SWIDTH 692 0
DWIDTH 9 0
BBX 11 10 0 0
BITMAP
3840
4860
2020
A0C0
00A0
0000
3E00
4100
9C80
A080
ENDCHAR
STARTCHAR guillemotleft
ENCODING 171
SWIDTH 538 0
DWIDTH 7 0
BBX 8 7 0 0
BITMAP
A0
80
A4
80
98
80
41
ENDCHAR
STARTCHAR notsign
ENCODING 172
SWIDTH 692 0
DWIDTH 9 0
BBX 8 4 1 3
BITMAP
00
3E
00
02
ENDCHAR
STARTCHAR hyphen
ENCODING 173
SWIDTH 307 0
DWIDTH 4 0
BBX 5 2 0 2
BITMAP
10
28
ENDCHAR
STARTCHAR registered
ENCODING 174
SWIDTH 846 0
DWIDTH 11 0
BBX 11 10 1 0
BITMAP
50A0
5040
00E0
0200
0000
1E00
6180
BC80
9240
9C40
ENDCHAR
STARTCHAR degree
ENCODING 176
SWIDTH 384 0
DWIDTH 5 0
BBX 5 5 1 5
BITMAP
90
40
B8
80
60
ENDCHAR
STARTCHAR plusminus
ENCODING 177
SWIDTH 538 0
DWIDTH 7 0
BBX 8 9 0 1
BITMAP
80
1E
00
00
60
90
90
60
00
ENDCHAR
STARTCHAR acute
ENCODING 180
SWIDTH 307 0
DWIDTH 4 0
BBX 3 3 2 7
BITMAP
00
00
00
ENDCHAR
STARTCHAR mu
ENCODING 181
SWIDTH 538 0
DWIDTH 7 0
BBX 10 10 -2 -3
BITMAP
FE00
1000
FE00
4080
0000
1100
1100
1100
2200
2680
ENDCHAR
STARTCHAR paragraph
ENCODING 182
SWIDTH 538 0
DWIDTH 7 0
BBX 7 13 1 -3
BITMAP
3A
00
40
00
40
00
40
00
00
7C
E8
E8
E8
ENDCHAR
STARTCHAR periodcentered
ENCODING 183
SWIDTH 307 0
DWIDTH 4 0
BBX 2 2 3 4
BITMAP
40
00
ENDCHAR
STARTCHAR cedilla
ENCODING 184
SWIDTH 307 0
DWIDTH 4 0
BBX 4 4 -1 -3
BITMAP
20
20
20
20
ENDCHAR
STARTCHAR guillemotright
ENCODING 187
SWIDTH 538 0
DWIDTH 7 0
BBX 8 7 0 0
BITMAP
28
28
00
80
00
20
A0
ENDCHAR
STARTCHAR onequarter
ENCODING 188
SWIDTH 538 0
DWIDTH 7 0
BBX 9 12 1 0
BITMAP
6000
1400
0A00
2800
0000
1400
0000
F700
2400
2400
2800
1000
ENDCHAR
STARTCHAR Aacute
ENCODING 193
SWIDTH 615 0
DWIDTH 8 0
BBX 11 13 -1 0
BITMAP
2000
2000
2000
F000
0000
0100
0200
0000
0100
0300
0500
0500
0900
ENDCHAR
STARTCHAR Acircumflex
ENCODING 194
SWIDTH 615 0
DWIDTH 8 0
BBX 11 13 -1 0
BITMAP
1F00
1100
2100
E380
0000
0180
0680
0000
0100
0300
0500
0500
0900
ENDCHAR
STARTCHAR Adiaeresis
ENCODING 196
SWIDTH 615 0
DWIDTH 8 0
BBX 11 12 -1 0
BITMAP
1F00
1100
2100
E380
0000
0280
0000
0100
0300
0500
0500
0900
ENDCHAR
STARTCHAR Ccedilla
ENCODING 199
SWIDTH 692 0
DWIDTH 9 0
BBX 9 13 1 -3
BITMAP
1F00
1100
2100
E380
0000
1D00
2300
4200
8000
8000
8000
8000
8400
ENDCHAR
STARTCHAR Eacute
ENCODING 201
SWIDTH 615 0
DWIDTH 8 0
BBX 10 13 -1 0
BITMAP
7800
1000
5000
3000
0000
0200
0400
0000
1F80
0880
1280
1200
1E00
ENDCHAR
STARTCHAR Ediaeresis
ENCODING 203
SWIDTH 615 0
DWIDTH 8 0
BBX 10 12 -1 0
BITMAP
1400
1500
2100
7E00
0000
0500
0000
1F80
0880
1280
1200
1E00
ENDCHAR
STARTCHAR Iacute
ENCODING 205
SWIDTH 307 0
DWIDTH 4 0
BBX 7 13 -1 0
BITMAP
14
00
14
00
20
00
7E
00
00
04
08
00
1C
ENDCHAR
STARTCHAR Icircumflex
ENCODING 206
SWIDTH 307 0
DWIDTH 4 0
BBX 7 13 -1 0
BITMAP
08
10
10
10
10
10
20
70
00
0C
34
00
1C
ENDCHAR
STARTCHAR Oacute
ENCODING 211
SWIDTH 692 0
DWIDTH 9 0
BBX 9 13 1 0
BITMAP
0800
1000
1000
2000
0000
0400
0800
0000
1E00
2100
4100
4100
8100
ENDCHAR
STARTCHAR Ocircumflex
ENCODING 212
SWIDTH 692 0
DWIDTH 9 0
BBX 9 13 1 0
BITMAP
8200
8200
8400
7800
0000
0600
1A00
0000
1E00
2100
4100
4100
8100
ENDCHAR
STARTCHAR Odiaeresis
ENCODING 214
SWIDTH 692 0
DWIDTH 9 0
BBX 9 12 1 0
BITMAP
8200
8200
8400
7800
0000
0A00
0000
1E00
2100
4100
4100
8100
ENDCHAR
STARTCHAR multiply
ENCODING 215
SWIDTH 692 0
DWIDTH 9 0
BBX 7 7 2 1
BITMAP
82
00
82
00
84
00
78
ENDCHAR
STARTCHAR Uacute
ENCODING 218
SWIDTH 692 0
DWIDTH 9 0
BBX 11 13 1 0
BITMAP
0000
8440
3020
4880
0000
0200
0400
0000
7380
2100
4200
4200
4200
ENDCHAR
STARTCHAR Udiaeresis
ENCODING 220
SWIDTH 692 0
DWIDTH 9 0
BBX 11 12 1 0
BITMAP
4200
4400
4400
3800
0000
0A00
0000
7380
2100
4200
4200
4200
ENDCHAR
STARTCHAR Yacute
ENCODING 221
SWIDTH 538 0
DWIDTH 7 0
BBX 9 13 1 0
BITMAP
4200
4400
4400
3800
0000
0400
0800
0000
F700
2400
2400
2800
1000
ENDCHAR
STARTCHAR ssharp
ENCODING 223
SWIDTH 538 0
DWIDTH 7 0
BBX 9 13 -2 -3
BITMAP
2000
2000
2000
F000
0000
0700
0900
1100
1200
1100
1100
1100
2A00
ENDCHAR
STARTCHAR aacute
ENCODING 225
SWIDTH 538 0
DWIDTH 7 0
BBX 8 10 0 0
BITMAP
2C
00
20
00
40
00
C0
00
00
04
ENDCHAR
STARTCHAR acircumflex
ENCODING 226
SWIDTH 538 0
DWIDTH 7 0
BBX 8 10 0 0
BITMAP
08
00
1C
64
44
88
98
EE
00
0C
ENDCHAR
STARTCHAR adiaeresis
ENCODING 228
SWIDTH 538 0
DWIDTH 7 0
BBX 8 9 0 0
BITMAP
34
00
1C
64
44
88
98
EE
00
ENDCHAR
STARTCHAR ccedilla
ENCODING 231
SWIDTH 461 0
DWIDTH 6 0
BBX 7 10 -1 -3
BITMAP
14
00
1C
64
44
88
98
EE
00
1C
ENDCHAR
STARTCHAR eacute
ENCODING 233
SWIDTH 461 0
DWIDTH 6 0
BBX 6 10 0 0
BITMAP
24
40
40
48
30
20
A0
60
00
08
ENDCHAR
STARTCHAR ediaeresis
ENCODING 235
SWIDTH 461 0
DWIDTH 6 0
BBX 6 9 0 0
BITMAP
10
00
38
48
90
E0
88
70
00
ENDCHAR
STARTCHAR iacute
ENCODING 237
SWIDTH 307 0
DWIDTH 4 0
BBX 5 10 -1 0
BITMAP
28
00
38
48
90
E0
88
70
00
10
ENDCHAR
STARTCHAR icircumflex
ENCODING 238
SWIDTH 307 0
DWIDTH 4 0
BBX 5 10 -1 0
BITMAP
20
00
60
20
20
20
50
60
00
30
ENDCHAR
STARTCHAR oacute
ENCODING 243
SWIDTH 538 0
DWIDTH 7 0
BBX 7 10 0 0
BITMAP
D0
00
60
20
20
20
50
60
00
08
ENDCHAR
STARTCHAR ocircumflex
ENCODING 244
SWIDTH 538 0
DWIDTH 7 0
BBX 7 10 0 0
BITMAP
10
00
38
44
84
84
88
70
00
0C
ENDCHAR
STARTCHAR odiaeresis
ENCODING 246
SWIDTH 538 0
DWIDTH 7 0
BBX 7 9 0 0
BITMAP
34
00
38
44
84
84
88
70
00
ENDCHAR
STARTCHAR division
ENCODING 247
SWIDTH 538 0
DWIDTH 7 0
BBX 8 6 0 2
BITMAP
14
00
38
44
84
84
ENDCHAR
STARTCHAR uacute
ENCODING 250
SWIDTH 538 0
DWIDTH 7 0
BBX 9 10 0 0
BITMAP
8800
0000
0080
0000
0000
0800
1000
0000
C400
C400
ENDCHAR
STARTCHAR udiaeresis
ENCODING 252
SWIDTH 538 0
DWIDTH 7 0
BBX 9 9 0 0
BITMAP
4400
4C00
9800
EE00
0000
1400
0000
C400
C400
ENDCHAR
STARTCHAR yacute
ENCODING 253
SWIDTH 461 0
DWIDTH 6 0
BBX 8 13 -2 -3
BITMAP
44
00
4C
00
98
00
EE
00
00
04
08
00
36
ENDCHAR
ENDFONT
